<?xml version="1.0" encoding="UTF-8" standalone="no"?>
<!-- Created with Inkscape (http://www.inkscape.org/) -->

<svg
   xmlns:dc="http://purl.org/dc/elements/1.1/"
   xmlns:cc="http://creativecommons.org/ns#"
   xmlns:rdf="http://www.w3.org/1999/02/22-rdf-syntax-ns#"
   xmlns:svg="http://www.w3.org/2000/svg"
   xmlns="http://www.w3.org/2000/svg"
   xmlns:sodipodi="http://sodipodi.sourceforge.net/DTD/sodipodi-0.dtd"
   xmlns:inkscape="http://www.inkscape.org/namespaces/inkscape"
   width="12"
   height="12"
   id="svg3173"
   version="1.1"
   inkscape:version="0.48.3.1 r9886"
   sodipodi:docname="infrastructure-12.svg">
  <defs
     id="defs3175" />
  <sodipodi:namedview
     id="base"
     pagecolor="#ffffff"
     bordercolor="#666666"
     borderopacity="1.0"
     inkscape:pageopacity="0.0"
     inkscape:pageshadow="2"
     inkscape:zoom="11.197802"
     inkscape:cx="-15.881257"
     inkscape:cy="16"
     inkscape:current-layer="layer1"
     showgrid="true"
     inkscape:grid-bbox="true"
     inkscape:document-units="px"
     inkscape:window-width="1366"
     inkscape:window-height="721"
     inkscape:window-x="-3"
     inkscape:window-y="-3"
     inkscape:window-maximized="1">
    <inkscape:grid
       type="xygrid"
       id="grid3000"
       empspacing="5"
       visible="true"
       enabled="true"
       snapvisiblegridlinesonly="true" />
  </sodipodi:namedview>
  <metadata
     id="metadata3178">
    <rdf:RDF>
      <cc:Work
         rdf:about="">
        <dc:format>image/svg+xml</dc:format>
        <dc:type
           rdf:resource="http://purl.org/dc/dcmitype/StillImage" />
        <dc:title></dc:title>
      </cc:Work>
    </rdf:RDF>
  </metadata>
  <g
     id="layer1"
     inkscape:label="Layer 1"
     inkscape:groupmode="layer"
     transform="translate(0,-20)">
    <g
       transform="matrix(0.79700916,0,0,0.80580609,-329.33921,-213.83852)"
       id="g29"
       style="fill:#000000">
      <path
         d="m 422.141,296.025 c -0.317,-0.005 -0.194,-0.017 -0.43,0.015 -0.144,0.025 -0.321,0.038 -0.34,0.268 -0.005,0.007 0.005,0.021 0.002,0.025 0.089,0.333 0.417,0.276 0.418,0.294 0.008,-0.002 0.112,-0.026 0.679,-0.006 0.286,0.012 0.57,0.034 0.78,0.076 0.104,0.021 0.19,0.049 0.241,0.075 0.016,0.009 0.029,0.014 0.035,0.022 -0.09,0.126 -0.717,0.368 -1.289,0.519 -0.594,0.167 -1.156,0.286 -1.156,0.288 -1.394,0.246 -1.943,0.718 -2.093,1.525 -0.042,0.494 0.377,0.962 1.367,1.496 1.13,0.604 1.354,1.104 1.311,1.418 -0.033,0.428 -0.545,0.983 -0.545,0.983 0.002,0 0.002,0 0.002,0 v 10e-4 c 0.001,-10e-4 0.001,-10e-4 0.005,-0.003 0.729,-0.354 1.102,-0.692 1.162,-1.112 0.053,-0.807 -1,-1.395 -2.285,-2.212 -0.208,-0.13 -0.307,-0.307 -0.288,-0.426 0.014,-0.199 -0.093,-0.735 1.329,-1.011 0.964,-0.236 3.336,-0.505 3.421,-1.424 -0.004,-0.022 -0.004,-0.038 -0.004,-0.061 -0.2,-0.84 -1.805,-0.711 -2.322,-0.75 z"
         id="path31"
         inkscape:connector-curvature="0"
         style="fill:#000000" />
      <path
         d="m 419.282,296.025 c 0.315,-0.005 0.192,-0.017 0.427,0.015 0.146,0.025 0.322,0.038 0.34,0.268 0.007,0.007 -0.004,0.021 0,0.025 -0.091,0.333 -0.419,0.276 -0.419,0.294 -0.011,-0.002 -0.112,-0.026 -0.68,-0.006 -0.286,0.012 -0.57,0.034 -0.78,0.076 -0.104,0.021 -0.189,0.049 -0.24,0.075 -0.018,0.009 -0.03,0.014 -0.039,0.022 0.093,0.126 0.72,0.368 1.292,0.519 0.594,0.167 1.155,0.286 1.156,0.288 1.392,0.246 1.944,0.718 2.093,1.525 0.039,0.494 -0.377,0.962 -1.368,1.496 -1.13,0.604 -1.354,1.104 -1.313,1.418 0.035,0.428 0.545,0.983 0.545,0.983 0,0 0,0 -0.002,0 v 10e-4 c 0,-10e-4 -0.002,-10e-4 -0.004,-0.003 -0.73,-0.354 -1.102,-0.692 -1.162,-1.112 -0.054,-0.807 0.999,-1.395 2.284,-2.212 0.21,-0.13 0.308,-0.307 0.289,-0.426 -0.016,-0.199 0.093,-0.735 -1.33,-1.011 -0.962,-0.236 -3.334,-0.505 -3.421,-1.424 0.004,-0.022 0.006,-0.038 0.006,-0.061 0.204,-0.84 1.806,-0.711 2.326,-0.75 z"
         id="path33"
         inkscape:connector-curvature="0"
         style="fill:#000000" />
      <circle
         d="m 421.534,293.04001 c 0,0.4352 -0.3528,0.788 -0.788,0.788 -0.4352,0 -0.788,-0.3528 -0.788,-0.788 0,-0.4352 0.3528,-0.788 0.788,-0.788 0.4352,0 0.788,0.3528 0.788,0.788 z"
         cx="420.746"
         cy="293.04001"
         r="0.78799999"
         id="circle35"
         sodipodi:cx="420.746"
         sodipodi:cy="293.04001"
         sodipodi:rx="0.78799999"
         sodipodi:ry="0.78799999"
         style="fill:#000000" />
      <g
         id="g37"
         style="fill:#000000">
        <path
           d="m 420.898,293.793 c 0,0 0.665,0.202 1.011,-0.419 0.349,-0.617 0.591,-0.687 0.937,-0.401 0.348,0.284 1.724,1.928 3.4,1.777 0,0 -0.334,0.754 -1.239,0.587 0,0 -0.483,0.501 -1.271,0.151 0,0 -0.406,0.367 -1.057,0.033 0,0 -0.483,0.368 -0.997,0.049 0,0 -0.528,0.386 -0.952,-0.016 l 0.168,-1.761 z"
           id="path39"
           inkscape:connector-curvature="0"
           style="fill:#000000" />
        <path
           d="m 420.594,293.793 c 0,0 -0.664,0.202 -1.011,-0.419 -0.347,-0.617 -0.589,-0.687 -0.936,-0.401 -0.349,0.284 -1.723,1.928 -3.399,1.777 0,0 0.333,0.754 1.239,0.587 0,0 0.483,0.501 1.269,0.151 0,0 0.408,0.367 1.057,0.033 0,0 0.484,0.368 0.997,0.049 0,0 0.529,0.386 0.951,-0.016 l -0.167,-1.761 z"
           id="path41"
           inkscape:connector-curvature="0"
           style="fill:#000000" />
      </g>
      <path
         d="m 421.098,293.289 h -0.701 l 0.105,9.251 h 10e-4 c 0.005,0.134 0.107,0.239 0.237,0.239 0.127,0 0.231,-0.105 0.235,-0.239 h 0.003 l 0.12,-9.251 z"
         id="path43"
         inkscape:connector-curvature="0"
         style="fill:#000000" />
    </g>
  </g>
</svg>
