<?xml version="1.0" encoding="UTF-8" standalone="no"?>
<!-- Created with Inkscape (http://www.inkscape.org/) -->

<svg
   xmlns:dc="http://purl.org/dc/elements/1.1/"
   xmlns:cc="http://creativecommons.org/ns#"
   xmlns:rdf="http://www.w3.org/1999/02/22-rdf-syntax-ns#"
   xmlns:svg="http://www.w3.org/2000/svg"
   xmlns="http://www.w3.org/2000/svg"
   xmlns:sodipodi="http://sodipodi.sourceforge.net/DTD/sodipodi-0.dtd"
   xmlns:inkscape="http://www.inkscape.org/namespaces/inkscape"
   width="18"
   height="18"
   id="svg3173"
   version="1.1"
   inkscape:version="0.48.3.1 r9886"
   sodipodi:docname="govt-and-civil-society-24.svg">
  <defs
     id="defs3175" />
  <sodipodi:namedview
     id="base"
     pagecolor="#ffffff"
     bordercolor="#666666"
     borderopacity="1.0"
     inkscape:pageopacity="0.0"
     inkscape:pageshadow="2"
     inkscape:zoom="11.197802"
     inkscape:cx="-5.2541712"
     inkscape:cy="16"
     inkscape:current-layer="layer1"
     showgrid="true"
     inkscape:grid-bbox="true"
     inkscape:document-units="px"
     inkscape:window-width="1366"
     inkscape:window-height="721"
     inkscape:window-x="-3"
     inkscape:window-y="-3"
     inkscape:window-maximized="1">
    <inkscape:grid
       type="xygrid"
       id="grid3000"
       empspacing="5"
       visible="true"
       enabled="true"
       snapvisiblegridlinesonly="true" />
  </sodipodi:namedview>
  <metadata
     id="metadata3178">
    <rdf:RDF>
      <cc:Work
         rdf:about="">
        <dc:format>image/svg+xml</dc:format>
        <dc:type
           rdf:resource="http://purl.org/dc/dcmitype/StillImage" />
        <dc:title></dc:title>
      </cc:Work>
    </rdf:RDF>
  </metadata>
  <g
     id="layer1"
     inkscape:label="Layer 1"
     inkscape:groupmode="layer"
     transform="translate(0,-14)">
    <g
       transform="matrix(1.0252029,0,0,1.0252029,-463.20435,-282.14088)"
       id="g47"
       style="fill:#000000">
      <polygon
         points="465.799,301.987 465.799,302.414 466.272,302.414 466.272,302.916 466.803,302.916 466.803,303.492 454.389,303.492 454.389,302.916 454.918,302.916 454.918,302.414 455.392,302.414 455.392,301.987 455.392,301.987 "
         id="polygon49"
         style="fill:#000000" />
      <g
         id="g51"
         style="fill:#000000">
        <rect
           x="456.68399"
           y="300.45401"
           width="0.301"
           height="1.554"
           id="rect53"
           style="fill:#000000" />
        <rect
           x="457.40701"
           y="300.45401"
           width="0.30000001"
           height="1.554"
           id="rect55"
           style="fill:#000000" />
        <rect
           x="455.68799"
           y="300.45401"
           width="0.29899999"
           height="1.554"
           id="rect57"
           style="fill:#000000" />
      </g>
      <g
         id="g59"
         style="fill:#000000">
        <rect
           x="464.16299"
           y="300.45401"
           width="0.30000001"
           height="1.554"
           id="rect61"
           style="fill:#000000" />
        <rect
           x="463.44"
           y="300.45401"
           width="0.29899999"
           height="1.554"
           id="rect63"
           style="fill:#000000" />
        <rect
           x="465.16"
           y="300.45401"
           width="0.30000001"
           height="1.554"
           id="rect65"
           style="fill:#000000" />
      </g>
      <polygon
         points="464.201,291.937 464.201,296.2 463.739,296.2 463.739,291.787 "
         id="polygon67"
         style="fill:#000000" />
      <path
         d="m 463.59,296.2 h -1.371 v -4.264 l 1.371,-0.149 v 4.413 z m -0.225,-4.114 -0.922,0.081 v 0.748 l 0.922,-0.081 v -0.748 z"
         id="path69"
         inkscape:connector-curvature="0"
         style="fill:#000000" />
      <g
         id="g71"
         style="fill:#000000">
        <rect
           x="458.418"
           y="300.44901"
           width="0.57200003"
           height="0.79400003"
           id="rect73"
           style="fill:#000000" />
        <rect
           x="462.20099"
           y="300.51199"
           width="0.57099998"
           height="0.79400003"
           id="rect75"
           style="fill:#000000" />
        <polygon
           points="459.723,302.008 459.723,300.078 461.468,300.078 461.468,302.008 461.892,302.008 461.892,299.688 459.3,299.688 459.3,302.008 "
           id="polygon77"
           style="fill:#000000" />
      </g>
      <path
         d="m 465.694,300.487 h -2.718 v -0.423 h -4.887 v 0.423 h -2.592 v -4.462 h 10.196 v 4.462 z m -2.73,-4.093 h -4.861 v 3.287 h 4.861 v -3.287 z"
         id="path79"
         inkscape:connector-curvature="0"
         style="fill:#000000" />
      <path
         d="m 461.252,297.042 c 0.039,0.011 0.083,0.03 0.116,0.053 0.034,0.024 0.057,0.063 0.07,0.096 0.015,0.032 0.02,0.059 0.02,0.059 0,0 -0.04,-10e-4 -0.078,0.003 -0.039,0.003 -0.077,0.01 -0.071,0.024 0.003,0.016 0.012,0.028 0.015,0.049 0.003,0.021 10e-4,0.046 -0.015,0.084 -0.018,0.039 -0.051,0.08 -0.089,0.118 -0.036,0.038 -0.077,0.073 -0.105,0.1 -0.028,0.027 -0.034,0.047 -0.026,0.063 0.008,0.016 0.026,0.026 0.047,0.033 0.021,0.008 0.041,-0.002 0.064,-0.015 0.023,-0.014 0.047,-0.031 0.073,-0.041 0.026,-0.009 0.059,-0.007 0.092,0.005 0.033,0.014 0.069,0.035 0.105,0.066 0.048,0.043 0.09,0.107 0.121,0.174 0.034,0.065 0.057,0.133 0.069,0.179 0.012,0.046 0.014,0.106 0.014,0.156 0,0.05 -0.003,0.09 -0.003,0.097 0,0.007 -0.004,0.04 -0.011,0.07 -0.007,0.03 -0.015,0.059 -0.022,0.059 -0.007,0 -0.011,-0.002 -0.013,-0.006 -0.002,-0.003 -0.005,-0.008 -0.014,-0.011 -0.009,-0.005 -0.015,-0.002 -0.018,0.001 -0.005,0.002 -0.008,0.005 -0.013,0.002 -0.004,-0.003 0.001,-0.036 0.009,-0.069 0.006,-0.032 0.015,-0.063 0.018,-0.062 0.003,0.003 -0.006,0.021 -0.017,0.04 -0.011,0.018 -0.021,0.036 -0.021,0.041 0,0.002 -0.005,0.003 -0.011,10e-4 -0.005,-10e-4 -0.012,-0.006 -0.012,-0.01 -10e-4,-0.006 -0.004,-0.013 -0.007,-0.02 -0.002,-0.006 -0.004,-0.011 -0.004,-0.011 0,0 0,0 -0.001,-10e-4 -10e-4,0 -0.002,-0.001 -0.006,-0.002 -0.004,-0.002 -0.006,-0.009 -0.007,-0.016 -0.001,-0.007 -0.001,-0.014 -0.001,-0.016 0,-0.003 -10e-4,-0.008 -0.004,-0.011 -0.003,-0.003 -0.007,-0.006 -0.011,-0.006 -0.005,0 -0.01,-0.004 -0.013,-0.01 -0.004,-0.005 -0.005,-0.012 -0.004,-0.015 0.002,-0.003 0.005,-0.009 0.005,-0.016 0,-0.006 -0.003,-0.013 -0.011,-0.016 -0.01,-0.002 -0.017,-0.008 -0.021,-0.017 -0.004,-0.009 -0.006,-0.021 -0.005,-0.035 10e-4,-0.016 10e-4,-0.022 -0.001,-0.028 -0.003,-0.006 -0.008,-0.014 -0.014,-0.027 -0.008,-0.015 -0.031,-0.028 -0.041,-0.025 -0.01,0.004 -0.006,0.023 -0.002,0.025 0.005,10e-4 0.009,0.026 0.011,0.056 0.003,0.029 0.005,0.063 0.003,0.083 0,0.02 0.003,0.031 0.005,0.039 0.002,0.008 0.004,0.01 0.004,0.01 0,0 0.002,0.011 0.004,0.021 10e-4,0.012 0.002,0.024 0.002,0.029 0,0.006 -0.005,0.011 -0.007,0.017 -0.003,0.007 -0.005,0.012 0,0.015 0.006,0.004 0.003,0.015 0,0.025 -0.004,0.012 -0.009,0.022 -0.009,0.026 0,0.005 -10e-4,0.021 -0.002,0.037 -10e-4,0.014 -0.002,0.028 -0.005,0.028 -0.003,0 -0.007,0.018 -0.01,0.036 -0.003,0.018 -0.006,0.038 -0.005,0.042 10e-4,0.004 0.002,0.009 0.002,0.016 0,0.005 0,0.009 0,0.009 l -0.006,0.021 -0.008,0.02 v 0.013 0.012 c 0,0 0.003,0.007 0.008,0.017 0.003,0.009 0.008,0.021 0.012,0.027 0.003,0.007 0.003,0.015 0.001,0.021 -0.001,0.007 -0.003,0.012 -0.003,0.012 0,0 0.022,0.009 0.048,0.02 0.024,0.01 0.051,0.022 0.057,0.025 0.007,0.003 0.013,0.01 0.018,0.016 0.007,0.007 0.013,0.014 0.018,0.021 0.005,0.008 0.011,0.013 0.017,0.015 0.006,0.004 0.013,0.005 0.02,0.005 0.007,0 0.015,0 0.023,0.003 0.008,10e-4 0.018,0.005 0.029,0.01 0.01,0.004 0.018,0.015 0.024,0.026 0.006,0.011 0.012,0.025 0.014,0.033 0.002,0.014 -0.013,0.028 -0.028,0.04 -0.016,0.013 -0.031,0.021 -0.031,0.021 0,0 0.003,0.002 0.007,0.011 0.003,0.008 0.008,0.022 0.012,0.048 0.003,0.026 -0.028,0.051 -0.069,0.069 -0.042,0.017 -0.096,0.026 -0.137,0.022 -0.043,-0.005 -0.092,-0.021 -0.133,-0.039 -0.04,-0.017 -0.07,-0.035 -0.073,-0.044 -0.004,-0.008 0.002,-0.021 0.008,-0.034 0.005,-0.013 0.009,-0.025 0.003,-0.031 -0.008,-0.006 -0.034,-0.006 -0.073,-0.003 -0.04,0.003 -0.092,0.008 -0.147,0.009 -0.056,0.003 -0.127,0.019 -0.197,0.034 -0.071,0.017 -0.14,0.032 -0.191,0.034 -0.051,0.003 -0.09,0.003 -0.137,-0.004 -0.046,-0.008 -0.099,-0.021 -0.177,-0.046 -0.078,-0.025 -0.149,-0.031 -0.203,-0.032 -0.053,-10e-4 -0.088,0.005 -0.096,0.006 -0.007,10e-4 -0.003,0.011 0.003,0.023 0.006,0.014 0.014,0.029 0.015,0.04 10e-4,0.01 -0.011,0.024 -0.027,0.036 -0.016,0.012 -0.037,0.023 -0.055,0.026 -0.017,0.003 -0.037,0.008 -0.063,0.012 -0.027,0.003 -0.061,0.004 -0.107,-0.001 -0.046,-0.007 -0.072,-0.025 -0.089,-0.044 -0.017,-0.021 -0.023,-0.04 -0.029,-0.049 -0.006,-0.01 -0.028,-0.018 -0.046,-0.032 -0.017,-0.015 -0.028,-0.032 -0.014,-0.061 0.015,-0.027 0.045,-0.044 0.071,-0.053 0.026,-0.008 0.049,-0.01 0.049,-0.01 0,0 0,0 0,-0.01 0,-0.009 0,-0.026 0,-0.064 0,-0.021 -0.007,-0.052 -0.019,-0.087 -0.011,-0.033 -0.025,-0.07 -0.038,-0.104 -0.01,-0.023 -0.019,-0.045 -0.024,-0.062 -0.008,-0.017 -0.012,-0.028 -0.013,-0.032 -0.003,-0.008 0.015,-0.034 0.033,-0.059 0.019,-0.025 0.038,-0.049 0.043,-0.052 0.005,-0.004 0.015,-0.004 0.016,-0.013 0.002,-0.008 -0.005,-0.023 -0.031,-0.058 -0.025,-0.034 -0.029,-0.071 -0.028,-0.1 10e-4,-0.027 0.007,-0.049 -0.001,-0.051 -0.008,-0.001 -0.016,0.02 -0.021,0.044 -0.007,0.023 -0.011,0.051 -0.013,0.06 0,0.009 -0.01,0.027 -0.02,0.043 -0.01,0.017 -0.02,0.03 -0.02,0.03 l -0.017,0.025 -0.017,0.024 -0.008,-0.008 -0.008,-0.009 -0.006,0.014 -0.007,0.015 c 0,0 -0.004,0.002 -0.009,0.004 -0.005,0.003 -0.013,0.005 -0.019,0.006 -0.007,10e-4 -0.01,-0.008 -0.011,-0.019 -10e-4,-0.011 0,-0.023 0.002,-0.031 0.002,-0.009 0.021,-0.017 0.043,-0.028 0.021,-0.01 0.046,-0.023 0.057,-0.046 0.01,-0.021 0.016,-0.046 0.02,-0.07 0.004,-0.024 0.007,-0.051 0.012,-0.076 0.005,-0.025 0.025,-0.055 0.047,-0.084 0.022,-0.029 0.043,-0.056 0.053,-0.076 0.008,-0.021 0.015,-0.046 0.019,-0.071 0.005,-0.026 0.008,-0.053 0.013,-0.073 0.004,-0.021 0.022,-0.056 0.041,-0.089 0.018,-0.034 0.037,-0.065 0.044,-0.082 0.007,-0.017 0.006,-0.025 0.006,-0.036 -10e-4,-0.009 -0.002,-0.021 0.005,-0.047 0.007,-0.023 0.011,-0.04 0.014,-0.054 0.001,-0.014 0.002,-0.026 0.002,-0.042 0,-0.015 -0.016,-0.05 -0.032,-0.092 -0.017,-0.041 -0.035,-0.089 -0.041,-0.131 -0.006,-0.042 0.025,-0.062 0.043,-0.076 0.019,-0.016 0.025,-0.025 -0.03,-0.048 -0.057,-0.022 -0.072,-0.049 -0.076,-0.069 -0.005,-0.021 0.002,-0.035 -0.005,-0.035 -0.007,0 -0.024,-0.019 -0.042,-0.043 -0.017,-0.023 -0.034,-0.052 -0.041,-0.068 -0.008,-0.018 -10e-4,-0.041 0.008,-0.054 0.008,-0.012 0.019,-0.015 0.02,0.01 0.002,0.024 0.012,0.049 0.024,0.067 0.012,0.018 0.029,0.033 0.046,0.037 0.017,0.004 0.046,0.021 0.062,0.027 0.016,0.006 0.019,0.006 -0.02,-0.023 -0.039,-0.03 -0.054,-0.056 -0.059,-0.074 -0.006,-0.019 -0.001,-0.029 -0.001,-0.032 0,-0.003 0,-0.012 0.002,-0.021 0.002,-0.008 0.007,-0.016 0.016,-0.02 0.008,-0.004 0.008,-0.008 0.007,-0.006 -0.003,10e-4 -0.007,0.01 -0.007,0.028 0,0.02 0.011,0.033 0.026,0.045 0.015,0.012 0.033,0.021 0.047,0.03 0.014,0.009 0.034,0.026 0.052,0.042 0.018,0.016 0.031,0.029 0.031,0.029 0,0 0.005,0.01 0.011,0.023 0.007,0.012 0.015,0.026 0.024,0.034 0.01,0.007 0.032,0.026 0.058,0.042 0.025,0.018 0.053,0.032 0.075,0.037 0.021,0.003 0.039,0.012 0.052,0.02 0.013,0.009 0.022,0.017 0.028,0.017 0.006,0 0.008,0.013 0.008,0.026 -10e-4,0.015 -0.002,0.03 -0.004,0.038 -0.002,0.007 -0.013,0.011 -0.025,0.014 -0.015,0.002 -0.031,0.003 -0.046,0.002 -0.016,-10e-4 -0.039,0.009 -0.06,0.019 -0.021,0.01 -0.037,0.02 -0.037,0.02 0,0 0.017,0.015 0.035,0.03 0.019,0.017 0.038,0.034 0.044,0.039 0.005,0.007 0.011,0.01 0.017,0.016 0.006,0.007 0.012,0.015 0.015,0.03 0.003,0.015 0.012,0.034 0.021,0.052 0.009,0.018 0.017,0.032 0.02,0.041 0.002,0.008 0.015,0.017 0.027,0.023 0.012,0.008 0.023,0.013 0.023,0.013 0,0 -0.005,0 -0.006,-0.003 0,-0.002 0.004,-0.006 0.021,-0.011 0.017,-0.005 0.071,-0.06 0.122,-0.11 0.05,-0.053 0.096,-0.104 0.096,-0.104 0,0 -0.023,-0.087 -0.048,-0.175 -0.023,-0.089 -0.048,-0.178 -0.05,-0.183 -0.002,-0.004 -0.015,-0.016 -0.026,-0.029 -0.013,-0.014 -0.025,-0.029 -0.027,-0.042 -0.003,-0.013 -0.005,-0.069 -0.006,-0.119 0,-0.049 0.001,-0.093 0.006,-0.081 0.004,0.011 0.031,0.054 0.058,0.099 0.027,0.045 0.052,0.089 0.052,0.104 0,0.014 -0.006,0.026 -0.012,0.035 -0.005,0.009 -0.011,0.015 -0.011,0.015 l 0.052,0.164 0.051,0.162 c 0,0 0.035,-0.041 0.073,-0.08 0.038,-0.039 0.079,-0.076 0.091,-0.068 0.013,0.01 0.053,0.048 0.089,0.083 0.038,0.036 0.071,0.069 0.071,0.069 0,0 0.023,-0.074 0.049,-0.151 0.024,-0.076 0.05,-0.156 0.057,-0.168 0.006,-0.012 10e-4,-0.033 -0.004,-0.054 -0.006,-0.02 -0.012,-0.041 -0.007,-0.05 0.004,-0.008 0.03,-0.048 0.055,-0.086 0.025,-0.038 0.048,-0.073 0.048,-0.073 0,0 0.005,0.035 0.008,0.078 0.003,0.042 0.006,0.09 0.001,0.117 -0.004,0.025 -0.02,0.046 -0.033,0.06 -0.015,0.014 -0.027,0.021 -0.027,0.021 l -0.056,0.178 -0.054,0.177 c 0,0 0.013,0.019 0.03,0.043 0.018,0.023 0.039,0.053 0.053,0.077 0.014,0.023 0.031,0.072 0.046,0.115 0.015,0.042 0.025,0.078 0.026,0.075 0.003,-0.005 0.009,-0.032 0.029,-0.065 0.021,-0.032 0.058,-0.071 0.119,-0.095 0.063,-0.022 0.09,-0.046 0.102,-0.063 0.012,-0.017 0.009,-0.028 0.009,-0.028 0,0 -10e-4,0.003 -0.009,0.006 -0.006,0.003 -0.02,0.006 -0.042,0.009 -0.022,0.003 -0.034,-0.013 -0.037,-0.03 -0.003,-0.017 0.002,-0.036 0.015,-0.042 0.015,-0.005 0.017,-0.013 0.017,-0.02 0,-0.007 -0.002,-0.011 10e-4,-0.012 0.014,0 -0.017,0.003 -0.051,0.004 -0.033,0.003 -0.069,0.003 -0.069,-0.004 0.006,-0.025 0.028,-0.03 0.05,-0.033 0.021,-0.003 0.04,-0.004 0.037,-0.021 -0.006,-0.04 0.017,-0.063 0.04,-0.076 0.023,-0.014 0.049,-0.018 0.049,-0.018 l -0.023,-0.081 -0.023,-0.082 c 0.011,-0.006 0.046,-0.002 0.085,0.009 z m -1.362,1.277 c 0,0 0.005,0.035 -0.028,0.07 -0.033,0.034 -0.149,0.12 -0.16,0.136 -0.011,0.016 0.011,0.083 0.016,0.111 0.006,0.028 0.043,0.164 0.046,0.18 10e-4,0.016 0.008,0.021 0.014,0.022 0.005,0.002 0.066,-0.054 0.077,-0.069 0.01,-0.016 0.045,-0.022 0.059,-0.024 0.014,-0.002 0.026,-0.007 0.042,-0.007 0.016,0 0.044,-0.022 0.035,-0.028 -0.009,-0.006 -0.039,-0.021 -0.039,-0.021 0,0 -0.002,0.012 -0.022,0.015 -0.021,0.005 -0.033,-0.006 -0.033,-0.006 l -0.005,-0.024 -0.021,-0.011 c 0,0 -0.01,-0.023 0.009,-0.014 0.02,0.008 0.011,-0.011 0.01,-0.019 -0.002,-0.006 0.014,-0.031 0.027,-0.016 0.013,0.015 0.038,0.023 0.038,0.023 0,0 -0.026,-0.04 -0.012,-0.045 0.014,-0.006 0.027,0.027 0.034,0.031 0.008,0.003 0,-0.046 0.017,-0.03 0.016,0.017 0.022,0.025 0.027,0.03 0.006,0.005 0.012,-0.031 0.016,-0.025 0.004,0.008 0.007,0.008 0.023,0.023 0.016,0.016 0.011,-0.046 0.021,-0.023 0.01,0.023 -0.009,0.021 0.005,0.034 0.014,0.012 0.075,-0.03 0.075,-0.03 l -0.016,-0.035 c 0,0 0.028,-0.012 0.035,0 0.007,0.013 0.022,-0.037 0.035,-0.021 0.012,0.017 0.007,0.017 0.009,0.031 0.001,0.015 0.048,-0.031 0.048,-0.031 0,0 -0.007,-0.02 -0.022,-0.02 -0.015,0 -0.02,-0.029 -0.02,-0.029 0,0 -0.006,-0.014 -0.017,-0.012 -0.011,0.002 -0.09,-0.02 -0.228,-0.011 -0.018,0.001 0.006,-0.021 0,-0.03 -0.005,-0.008 0.024,-0.063 -0.013,-0.091 -0.036,-0.025 -0.082,-0.034 -0.082,-0.034 z m 0.226,-0.482 c 0,0 -0.021,0.049 -0.031,0.07 -0.011,0.023 -0.012,0.097 -0.027,0.114 -0.017,0.018 -0.048,0.082 -0.044,0.091 0.003,0.009 0.064,-0.013 0.068,0 0.003,0.012 0.018,0.085 0.006,0.125 -0.01,0.041 -0.074,0.15 -0.032,0.169 0.041,0.02 0.03,0.035 0.134,0.035 0.103,0 0.14,0.065 0.15,0.084 0.01,0.02 0.014,-0.014 0.014,-0.014 0,0 -0.007,-0.039 0,-0.047 0.008,-0.009 0.071,-0.042 0.071,-0.042 0,0 -0.172,-0.211 -0.19,-0.403 -0.017,-0.191 0,0.071 -0.025,0.131 -0.005,0.011 0,0.06 -0.007,0.062 -0.007,0.002 -0.022,0.008 -0.034,0.005 -0.028,-0.01 -0.021,-0.064 -0.016,-0.075 0.006,-0.011 0,-0.036 -0.01,-0.035 -0.011,0.002 -0.002,-0.027 0.012,-0.038 0.015,-0.011 0.023,-0.047 0.027,-0.061 0.003,-0.015 0.003,-0.104 0.003,-0.104 l -0.069,-0.067 z m 0.072,-0.139 c -0.02,0.004 -0.034,0.049 -0.034,0.049 0,0 0.077,0.109 0.064,0.09 -0.012,-0.021 0.026,-0.213 0.026,-0.213 0,0 -0.037,0.071 -0.056,0.074 z m 0.785,0.176 v 0.166 c 0,0 0.096,0.083 0.116,0.102 0.021,0.02 0.142,0.128 0.156,0.128 0.014,0 -0.002,-0.033 -0.011,-0.041 -0.009,-0.007 -0.009,-0.045 -0.021,-0.054 -0.013,-0.009 -0.037,-0.049 -0.043,-0.064 -0.005,-0.016 -0.021,-0.067 -0.027,-0.084 -0.017,-0.036 -0.052,-0.039 -0.074,-0.053 -0.032,-0.022 -0.096,-0.087 -0.096,-0.1 z m 0.324,0.416 c 0.005,0.015 -0.008,0.06 -0.017,0.052 -0.009,-0.006 -0.308,-0.251 -0.308,-0.251 -0.042,0.026 -0.043,-0.009 -0.047,0.011 -0.015,0.086 -0.177,0.331 -0.177,0.331 0,0 0.045,0.016 0.063,0.032 0.017,0.016 0.017,0.037 0.017,0.047 0,0.008 0.021,0.017 0.032,0.02 0.013,0.002 0.021,0 0.021,0 0,0 0.014,0.006 0.012,0 -0.002,-0.006 0.008,-0.017 0.008,-0.017 0,0 -0.001,-0.024 0.021,-0.029 0.023,-0.005 0.04,0.005 0.06,0.004 0.02,-0.002 0.033,0.029 0.033,0.029 0,0 -0.007,0.041 0,0.041 0.007,0 0.022,0.005 0.022,0.005 0,0 0.009,-0.011 0.018,-0.02 0.009,-0.01 0.013,-0.026 0.037,-0.043 0.023,-0.015 0.023,-0.012 0.052,0.008 0.027,0.019 0.033,0.052 0.033,0.069 0,0.017 -0.033,0.029 -0.018,0.032 0.017,0.001 0.037,0.015 0.035,0.034 -0.002,0.019 0,0.032 0,0.032 l 0.119,0.052 c 0,0 0.013,0 0.032,0 0.019,0 0.004,-0.011 0,-0.034 -0.004,-0.021 0.015,-0.025 0.013,-0.043 -10e-4,-0.018 0.002,-0.018 0.007,-0.032 0.006,-0.017 -0.002,-0.041 -0.003,-0.056 -0.002,-0.014 0.009,-0.036 0.013,-0.058 0.006,-0.023 0.018,-0.017 0.006,-0.059 -0.013,-0.042 0.012,-0.033 0.011,-0.05 -0.002,-0.019 -0.009,-0.064 -0.009,-0.079 0,-0.014 -0.016,-0.047 -0.022,-0.059 -0.007,-0.013 -0.06,-0.077 -0.06,-0.077 0,0 -0.018,0.064 -0.004,0.108 z"
         id="path81"
         inkscape:connector-curvature="0"
         style="fill:#000000" />
    </g>
  </g>
</svg>
