<?xml version="1.0" encoding="UTF-8" standalone="no"?>
<!-- Created with Inkscape (http://www.inkscape.org/) -->

<svg
   xmlns:dc="http://purl.org/dc/elements/1.1/"
   xmlns:cc="http://creativecommons.org/ns#"
   xmlns:rdf="http://www.w3.org/1999/02/22-rdf-syntax-ns#"
   xmlns:svg="http://www.w3.org/2000/svg"
   xmlns="http://www.w3.org/2000/svg"
   xmlns:sodipodi="http://sodipodi.sourceforge.net/DTD/sodipodi-0.dtd"
   xmlns:inkscape="http://www.inkscape.org/namespaces/inkscape"
   width="12"
   height="12"
   id="svg3173"
   version="1.1"
   inkscape:version="0.48.3.1 r9886"
   sodipodi:docname="infrastructure-12.svg">
  <defs
     id="defs3175" />
  <sodipodi:namedview
     id="base"
     pagecolor="#ffffff"
     bordercolor="#666666"
     borderopacity="1.0"
     inkscape:pageopacity="0.0"
     inkscape:pageshadow="2"
     inkscape:zoom="11.197802"
     inkscape:cx="-15.881257"
     inkscape:cy="16"
     inkscape:current-layer="layer1"
     showgrid="true"
     inkscape:grid-bbox="true"
     inkscape:document-units="px"
     inkscape:window-width="1366"
     inkscape:window-height="721"
     inkscape:window-x="-3"
     inkscape:window-y="-3"
     inkscape:window-maximized="1">
    <inkscape:grid
       type="xygrid"
       id="grid3000"
       empspacing="5"
       visible="true"
       enabled="true"
       snapvisiblegridlinesonly="true" />
  </sodipodi:namedview>
  <metadata
     id="metadata3178">
    <rdf:RDF>
      <cc:Work
         rdf:about="">
        <dc:format>image/svg+xml</dc:format>
        <dc:type
           rdf:resource="http://purl.org/dc/dcmitype/StillImage" />
        <dc:title></dc:title>
      </cc:Work>
    </rdf:RDF>
  </metadata>
  <g
     id="layer1"
     inkscape:label="Layer 1"
     inkscape:groupmode="layer"
     transform="translate(0,-20)">
    <g
       transform="matrix(0.9972588,0,0,0.9972588,-334.11462,-270.82361)"
       id="g11"
       style="fill:#000000">
      <path
         d="m 343.055,301.071 c 0,0.118 -0.106,0.214 -0.238,0.214 h -3.536 c -0.131,0 -0.237,-0.096 -0.237,-0.214 v -1.61 c 0,-0.119 0.106,-0.214 0.237,-0.214 h 3.536 c 0.131,0 0.238,0.095 0.238,0.214 v 1.61 z"
         id="path13"
         inkscape:connector-curvature="0"
         style="fill:#000000" />
      <path
         d="m 343.055,295.818 c 0,0.118 -0.106,0.213 -0.238,0.213 h -3.536 c -0.131,0 -0.237,-0.095 -0.237,-0.213 v -1.61 c 0,-0.118 0.106,-0.214 0.237,-0.214 h 3.536 c 0.131,0 0.238,0.096 0.238,0.214 v 1.61 z"
         id="path15"
         inkscape:connector-curvature="0"
         style="fill:#000000" />
      <g
         id="g17"
         style="fill:#000000">
        <path
           d="m 340.741,298.444 c 0,0.118 -0.105,0.214 -0.237,0.214 h -3.536 c -0.131,0 -0.238,-0.096 -0.238,-0.214 v -1.61 c 0,-0.118 0.106,-0.214 0.238,-0.214 h 3.536 c 0.131,0 0.237,0.096 0.237,0.214 v 1.61 z"
           id="path19"
           inkscape:connector-curvature="0"
           style="fill:#000000" />
        <path
           d="m 345.369,298.444 c 0,0.118 -0.106,0.214 -0.238,0.214 h -3.536 c -0.13,0 -0.236,-0.096 -0.236,-0.214 v -1.61 c 0,-0.118 0.106,-0.214 0.236,-0.214 h 3.536 c 0.132,0 0.238,0.096 0.238,0.214 v 1.61 z"
           id="path21"
           inkscape:connector-curvature="0"
           style="fill:#000000" />
      </g>
    </g>
  </g>
</svg>
