<?xml version="1.0" encoding="UTF-8" standalone="no"?>
<!-- Created with Inkscape (http://www.inkscape.org/) -->

<svg
   xmlns:dc="http://purl.org/dc/elements/1.1/"
   xmlns:cc="http://creativecommons.org/ns#"
   xmlns:rdf="http://www.w3.org/1999/02/22-rdf-syntax-ns#"
   xmlns:svg="http://www.w3.org/2000/svg"
   xmlns="http://www.w3.org/2000/svg"
   xmlns:sodipodi="http://sodipodi.sourceforge.net/DTD/sodipodi-0.dtd"
   xmlns:inkscape="http://www.inkscape.org/namespaces/inkscape"
   width="24"
   height="24"
   id="svg3173"
   version="1.1"
   inkscape:version="0.48.3.1 r9886"
   sodipodi:docname="water_and_sanitation.svg">
  <defs
     id="defs3175" />
  <sodipodi:namedview
     id="base"
     pagecolor="#ffffff"
     bordercolor="#666666"
     borderopacity="1.0"
     inkscape:pageopacity="0.0"
     inkscape:pageshadow="2"
     inkscape:zoom="11.197802"
     inkscape:cx="5.3729144"
     inkscape:cy="16"
     inkscape:current-layer="layer1"
     showgrid="true"
     inkscape:grid-bbox="true"
     inkscape:document-units="px"
     inkscape:window-width="1366"
     inkscape:window-height="721"
     inkscape:window-x="-3"
     inkscape:window-y="-3"
     inkscape:window-maximized="1" />
  <metadata
     id="metadata3178">
    <rdf:RDF>
      <cc:Work
         rdf:about="">
        <dc:format>image/svg+xml</dc:format>
        <dc:type
           rdf:resource="http://purl.org/dc/dcmitype/StillImage" />
        <dc:title></dc:title>
      </cc:Work>
    </rdf:RDF>
  </metadata>
  <g
     id="layer1"
     inkscape:label="Layer 1"
     inkscape:groupmode="layer"
     transform="translate(0,-8)">
    <g
       transform="matrix(1.7332274,0,0,1.7331023,-855.38412,-495.8397)"
       id="g85"
       style="fill:#000000">
      <path
         d="m 502.688,301.315 c 0,1.504 2.009,1.504 2.009,0 0,-0.273 -0.823,-2.192 -1.005,-2.557 -0.182,0.274 -1.004,2.284 -1.004,2.557 z"
         id="path87"
         inkscape:connector-curvature="0"
         style="fill:#000000" />
      <path
         d="m 504.88,297.911 c 0,-0.209 0,-0.556 0,-1.161 0,-0.736 -0.669,-1.369 -1.553,-1.369 0,0 -0.005,0 -2.065,0 l -0.011,-0.645 c 0,-0.188 -0.15,-0.337 -0.337,-0.337 h -0.808 v -0.415 c 0.069,-0.04 0.127,-0.092 0.177,-0.156 0.242,0 0.733,0 1.72,0 0.115,0.148 0.285,0.25 0.486,0.25 0.343,0 0.622,-0.278 0.622,-0.622 0,-0.34 -0.279,-0.62 -0.622,-0.62 -0.206,0 -0.38,0.106 -0.493,0.262 -0.271,0 -0.78,0 -1.705,0 -0.113,-0.155 -0.288,-0.262 -0.494,-0.262 -0.206,0 -0.38,0.106 -0.492,0.262 -0.528,0 -1.153,0 -1.883,0 -0.114,-0.155 -0.287,-0.262 -0.492,-0.262 -0.344,0 -0.623,0.28 -0.623,0.62 0,0.344 0.279,0.622 0.623,0.622 0.2,0 0.372,-0.102 0.483,-0.25 0.312,0 0.878,0 1.899,0 0.049,0.066 0.108,0.118 0.18,0.158 v 0.413 h -0.857 c -0.186,0 -0.336,0.149 -0.336,0.337 v 0.645 c -0.211,0 -0.814,0 -2.511,0 v 2.007 c 0.059,0 0.466,0 2.792,0 0.273,0.55 0.64,0.822 1.187,0.822 0.549,0 1.004,-0.272 1.279,-0.822 0,0 0,0 1.004,0 0.299,0 0.41,0.192 0.442,0.563 -0.088,0.061 -0.148,0.156 -0.148,0.272 0,0.187 0.149,0.335 0.336,0.335 h 2.084 c 0.187,0 0.337,-0.148 0.337,-0.335 0,-0.145 -0.092,-0.266 -0.221,-0.312 z"
         id="path89"
         inkscape:connector-curvature="0"
         style="fill:#000000" />
    </g>
  </g>
</svg>
